<svg width="43" height="45" fill="none" xmlns="http://www.w3.org/2000/svg"><path d="M18 28.87c0-2.122 1.767-3.87 3.913-3.87 2.145 0 3.912 1.748 3.912 3.87 0 .88-.364 1.645-.87 2.299v2.002c0 1.646-1.379 3.01-3.042 3.01-1.664 0-3.044-1.364-3.044-3.01V31.17c-.505-.655-.869-1.42-.869-2.3z" stroke="#F0380F" stroke-width="3"/><rect x="1.5" y="17.5" width="40" height="26" rx="2.5" stroke="#F0380F" stroke-width="3"/><path d="M10.5 12.5c0-6.075 4.925-11 11-11s11 4.925 11 11v5h-22v-5z" stroke="#F0380F" stroke-width="3"/></svg>