<svg width="133" height="31" fill="none" xmlns="http://www.w3.org/2000/svg"><path d="M130.29 8.42c-.1-.13-.18-.22-.24-.27a.89.89 0 00-.24-.13c.3-.04.53-.15.69-.33.16-.18.25-.4.25-.65 0-.18-.04-.35-.13-.5-.09-.15-.2-.26-.32-.34-.13-.07-.31-.15-.55-.17-.08 0-.45-.03-1.11-.03h-.71v3.6h.8V8.2h.09c.2 0 .36.01.49.11s.29.34.49.72l.29.57h.87l-.41-.73c-.14-.25-.23-.41-.26-.45zm-.61-.88c-.1.03-.35.06-.76.06h-.2v-1h.2c.4 0 .65.03.76.06.1.03.18.09.24.17.06.07.08.16.08.26a.468.468 0 01-.32.45zm2.57-1.4c-.29-.53-.7-.93-1.22-1.21-.52-.28-1.05-.42-1.62-.42-.56 0-1.1.14-1.62.42-.52.28-.92.69-1.22 1.21a3.323 3.323 0 00-.01 3.29c.29.52.69.92 1.21 1.21.52.29 1.06.44 1.63.44.57 0 1.11-.15 1.63-.44.52-.29.92-.7 1.21-1.21.29-.52.43-1.07.43-1.64.02-.57-.13-1.12-.42-1.65zm-.55 2.97c-.23.42-.56.75-.97.98-.42.23-.85.35-1.31.35-.46 0-.89-.12-1.31-.35-.42-.24-.74-.56-.97-.98-.23-.42-.35-.86-.35-1.31 0-.47.12-.91.36-1.33.24-.42.56-.75.98-.97a2.658 2.658 0 012.6 0c.42.23.74.55.98.97.24.42.36.87.36 1.33-.02.45-.13.89-.37 1.31zm-90.47-4.6c-7.01 0-12.7 5.72-12.7 12.75s5.7 12.75 12.7 12.75c7 0 12.7-5.72 12.7-12.75.01-7.04-5.69-12.75-12.7-12.75zm0 19.12c-3.5 0-6.35-2.86-6.35-6.37 0-3.52 2.85-6.37 6.35-6.37 3.5 0 6.35 2.86 6.35 6.37.01 3.51-2.85 6.37-6.35 6.37zm14.51 5.7h6.35V.97h-6.35v28.36zM76.6 4.51c-7.01 0-12.7 5.72-12.7 12.75C63.9 24.28 69.6 30 76.6 30c7.01 0 12.7-5.72 12.7-12.75.01-7.03-5.69-12.74-12.7-12.74zm0 19.12c-3.5 0-6.35-2.86-6.35-6.37 0-3.52 2.85-6.37 6.35-6.37 3.5 0 6.35 2.86 6.35 6.37 0 3.51-2.84 6.37-6.35 6.37zM97.46 5.75h-6.35v23.58h6.35V17.89c0-3.52 2.85-6.37 6.35-6.37V5.14c-2.31 0-4.48.9-6.35 2.36V5.75zm8.03-.64v6.37h8.5l-10.16 17.85h20.72v-6.37h-9.77l10.16-17.85h-19.45zM14.95 6.37c3.18 0 5.95 1.74 7.44 4.32l5.5-3.19C25.3 3.02 20.48 0 14.95 0 6.69 0 0 6.72 0 15c0 8.28 6.69 15 14.95 15 5.53 0 10.35-3.02 12.94-7.51l-5.5-3.19c-1.49 2.58-4.26 4.32-7.44 4.32-4.74 0-8.6-3.87-8.6-8.63 0-4.75 3.86-8.62 8.6-8.62z" fill="#18181B"/></svg>